<?xml version="1.0" encoding="UTF-8"?>
<svg xmlns="http://www.w3.org/2000/svg">
    <symbol
        id="swiper-slide-direction"
        viewBox="0 0 56 56"
        fill="currentColor"
    >
        <path fill-rule="evenodd"
            d="M30.014 30.014v16.158l3.757-3.758a2 2 0 0 1 2.829 2.829l-7.071 7.07-.052.05a2 2 0 0 1-1.463.637 2 2 0 0 1-1.293-.474 2 2 0 0 1-.25-.212l-7.07-7.071a2 2 0 1 1 2.828-2.829l3.785 3.785V30.014H9.828l3.758 3.757a2 2 0 0 1-2.829 2.829l-7.07-7.071-.05-.052A2 2 0 0 1 3 28.014c0-.493.178-.945.474-1.293q.095-.132.212-.25l7.071-7.07a2 2 0 1 1 2.829 2.828L9.8 26.014h16.213V9.801l-3.785 3.785a2 2 0 0 1-2.829-2.829l7.071-7.07q.118-.12.25-.213A2 2 0 0 1 28.013 3c.578 0 1.098.245 1.463.637q.027.024.052.05l7.07 7.07a2 2 0 1 1-2.828 2.829l-3.757-3.758v16.186h16.185l-3.785-3.785a2 2 0 0 1 2.829-2.829l7.07 7.071q.12.118.213.25c.296.348.474.8.474 1.293 0 .578-.245 1.098-.637 1.463l-.05.052-7.07 7.07a2 2 0 1 1-2.829-2.828l3.758-3.757z" />
    </symbol>

    <symbol
        id="swiper-slide-per-view"
        viewBox="0 0 16 16"
        fill="currentColor"
    >
        <path
            d="M 3.938 14.164 L 12.068 14.164 C 13.467 14.164 14.164 13.467 14.164 12.088 L 14.164 3.912 C 14.164 2.533 13.467 1.836 12.068 1.836 L 3.938 1.836 C 2.546 1.836 1.836 2.526 1.836 3.912 L 1.836 12.088 C 1.836 13.474 2.546 14.164 3.938 14.164 Z M 3.959 13.086 C 3.276 13.086 2.914 12.731 2.914 12.034 L 2.914 3.966 C 2.914 3.269 3.276 2.914 3.959 2.914 L 7.441 2.914 L 7.441 13.086 Z M 12.048 2.914 C 12.724 2.914 13.086 3.269 13.086 3.966 L 13.086 12.034 C 13.086 12.731 12.724 13.086 12.048 13.086 L 8.566 13.086 L 8.566 2.914 Z" />
    </symbol>

    <symbol
        id="swiper-slides-per-group"
        viewBox="0 0 16 16"
        fill="currentColor"
    >
        <path
            d="M3.655 12.498h8.689c1.09 0 1.647-.562 1.647-1.632V4.754c0-1.074-.557-1.632-1.647-1.632H3.655c-1.085 0-1.647.557-1.647 1.632v6.113c0 1.074.567 1.632 1.647 1.632m.061-.985c-.467 0-.723-.246-.723-.733V4.834c0-.487.257-.728.723-.728h8.573c.462 0 .718.241.718.728v5.946c0 .487-.257.733-.718.733zm.693-2.516h2.672c.266 0 .447-.176.447-.457V7.074c0-.277-.181-.452-.447-.452H4.409c-.266 0-.447.175-.447.451V8.54c0 .281.181.457.447.457m4.434 0h2.672c.271 0 .447-.176.447-.457V7.074c0-.277-.176-.452-.447-.452H8.844c-.266 0-.447.175-.447.451V8.54c0 .281.181.457.447.457" />
    </symbol>

    <symbol
        id="swiper-slides"
        viewBox="0 0 20 20"
        fill="none"
    >
        <rect
            x="2"
            y="4"
            width="6"
            height="12"
            stroke="currentColor"
            fill="none"
            stroke-width="1.5"
        />
        <rect
            x="9"
            y="4"
            width="6"
            height="12"
            stroke="currentColor"
            fill="none"
            stroke-width="1.5"
        />
        <rect
            x="16"
            y="4"
            width="2"
            height="12"
            stroke="currentColor"
            fill="none"
            stroke-width="1.5"
            opacity="0.3"
        />
    </symbol>

    <symbol
        id="swiper-autoplay"
        viewBox="0 0 20 20"
        fill="none"
    >
        <circle
            cx="10"
            cy="10"
            r="7"
            stroke="currentColor"
            fill="none"
            stroke-width="1.5"
        />
        <path d="M8 7l5 3-5 3z" fill="currentColor" />
    </symbol>

    <symbol
        id="swiper-navigation"
        viewBox="0 0 20 20"
        fill="none"
    >
        <path
            d="M7 5l5 5-5 5M13 5l5 5-5 5"
            stroke="currentColor"
            fill="none"
            stroke-width="1.5"
        />
    </symbol>
    <symbol
        id="swiper-effects"
        viewBox="0 0 20 20"
        fill="none"
    >
        <path
            d="M3 10h14M10 3v14M5 5l10 10M15 5L5 15"
            stroke="currentColor"
            fill="none"
            stroke-width="1.5"
            opacity="0.5"
        />
        <circle
            cx="10"
            cy="10"
            r="3"
            stroke="currentColor"
            fill="none"
            stroke-width="1.5"
        />
    </symbol>

    <symbol
        id="swiper-slides-grid"
        viewBox="0 0 16 16"
        fill="currentColor"
    >
        <path
            d="M 3.938 14.164 L 12.068 14.164 C 13.467 14.164 14.164 13.467 14.164 12.088 L 14.164 3.912 C 14.164 2.533 13.467 1.836 12.068 1.836 L 3.938 1.836 C 2.546 1.836 1.836 2.526 1.836 3.912 L 1.836 12.088 C 1.836 13.474 2.546 14.164 3.938 14.164 Z M 2.914 3.966 C 2.914 3.269 3.276 2.914 3.959 2.914 L 12.048 2.914 C 12.724 2.914 13.086 3.269 13.086 3.966 L 13.086 7.427 L 2.914 7.427 Z M 3.959 13.086 C 3.276 13.086 2.914 12.731 2.914 12.034 L 2.914 8.552 L 13.086 8.552 L 13.086 12.034 C 13.086 12.731 12.724 13.086 12.048 13.086 Z" />

    </symbol>

    <symbol
        id="swiper-slides-centered"
        viewBox="0 0 16 16"
        fill="currentColor"
    >
        <path
            d="M.693 5.223v4.816C.241 10.004 0 9.738 0 9.25V6.011c0-.487.241-.754.693-.789m1.774-.844v6.534c-.477-.069-.753-.31-.753-.848V5.233c0-.542.276-.783.753-.854m12.839 5.69V5.253c.452.035.693.302.693.789v3.24c0 .487-.241.753-.693.789m-1.774.843V4.379c.477.07.753.311.753.849v4.832c0 .542-.276.783-.753.854" />
        <path
            d="M10.931 12.464H5.082c-1.086 0-1.653-.563-1.653-1.638v-5.76c0-1.076.567-1.637 1.652-1.637h5.726c1.085 0 1.651.562 1.651 1.637v5.761c0 1.075-.562 1.637-1.526 1.637Z"
            fill="none" stroke="currentColor" stroke-width=".571" />

    </symbol>

    <symbol
        id="swiper-space-between-slides"
        viewBox="0 0 56 56"
        fill="currentColor">
        <path
            d="M26.68 12.579v35.308c0 .705.615 1.266 1.32 1.266s1.338-.561 1.338-1.266V12.579c0-.705-.633-1.248-1.338-1.248s-1.32.543-1.32 1.248M4.16 40.832h12.88c2.767 0 4.16-1.338 4.16-4.124V23.74c0-2.75-1.393-4.106-4.16-4.106H4.16C1.393 19.633 0 20.99 0 23.74v12.97c0 2.785 1.393 4.123 4.16 4.123m34.801 0H51.84c2.767 0 4.16-1.338 4.16-4.124V23.74c0-2.75-1.393-4.106-4.16-4.106H38.961c-2.767 0-4.16 1.357-4.16 4.106v12.97c0 2.785 1.393 4.123 4.16 4.123M4.377 38.101c-1.067 0-1.646-.543-1.646-1.664v-12.39c0-1.14.58-1.682 1.646-1.682h12.445c1.067 0 1.646.542 1.646 1.682v12.39c0 1.121-.58 1.664-1.646 1.664Zm34.801 0c-1.067 0-1.645-.543-1.645-1.664v-12.39c0-1.14.578-1.682 1.645-1.682h12.445c1.067 0 1.646.542 1.646 1.682v12.39c0 1.121-.579 1.664-1.646 1.664Z" />
    </symbol>

    <symbol
        id="swiper-auto-height"
        viewBox="0 0 56 56"
        fill="currentColor">> <path
            d="M28 51.074c.586 0 1.125-.21 1.57-.68l13.407-13.663a2.27 2.27 0 0 0 .632-1.524c0-1.242-.843-2.062-2.062-2.062a1.98 1.98 0 0 0-1.43.562l-6.469 6.633-3.773 4.383.234-5.438v-22.57l-.234-5.438 3.773 4.383 6.47 6.633c.374.352.82.563 1.429.563 1.219 0 2.062-.82 2.062-2.063 0-.516-.234-1.125-.632-1.523L29.57 5.606a2.1 2.1 0 0 0-1.57-.68c-.562 0-1.102.21-1.57.68L13.047 19.27c-.399.398-.656 1.007-.656 1.523 0 1.242.867 2.063 2.062 2.063.61 0 1.078-.212 1.453-.563l6.446-6.633 3.796-4.383-.234 5.438v22.57l.234 5.438-3.796-4.383-6.446-6.633a2.04 2.04 0 0 0-1.453-.562c-1.195 0-2.062.82-2.062 2.062 0 .516.257 1.125.656 1.523L26.43 50.396c.468.468 1.008.68 1.57.68" />
    </symbol>

    <symbol
        id="swiper-grab-cursor"
        viewBox="0 0 56 56"
        fill="currentColor">
        <path
            d="M9.121 36.25c0 11.555 6.399 16.734 15.328 16.734 5.672 0 9.89-1.875 13.266-5.414 4.687-4.968 6.234-12.492 7.125-15.445.703-2.32 2.039-5.297 2.039-6.867 0-1.008-1.336-1.899-2.227-1.899-2.015 0-2.765.914-3.96 3.446-1.313 2.789-2.907 7.992-4.172 7.992-.727 0-.985-1.29-.985-3.75V8.43c0-1.242-.75-2.367-2.344-2.367-1.57 0-2.343 1.125-2.343 2.367v18.515c-.75-.21-1.617-.375-2.555-.515V5.36c0-1.243-.773-2.344-2.344-2.344s-2.344 1.101-2.344 2.343v20.907c-.867.047-1.71.14-2.554.28V7.165c0-1.242-.797-2.367-2.344-2.367s-2.344 1.125-2.344 2.367V27.86a16.3 16.3 0 0 0-2.554 1.313v-14.72c0-1.242-.727-2.367-2.297-2.367-1.617 0-2.39 1.125-2.39 2.367Z" />
    </symbol>

    <symbol
        id="swiper-loop"
        viewBox="0 0 56 56"
        fill="currentColor">
        <path
            d="M53.949 26.303h-3.087c-1.24-11.47-11.11-20.597-22.873-20.597-6.851 0-13.07 3.11-17.307 8-.857.97-.722 2.163.157 2.794.902.631 1.96.429 2.705-.405a19.12 19.12 0 0 1 14.445-6.558 19.074 19.074 0 0 1 18.997 16.766h-3.358c-1.6 0-2.028 1.082-1.15 2.321l5.026 7.189c.721 1.037 1.803 1.06 2.547 0l5.047-7.166c.902-1.262.474-2.344-1.149-2.344m-51.898 4.8h3.087c1.24 11.47 11.11 20.575 22.85 20.575 6.896 0 13.116-3.133 17.353-8 .811-.97.698-2.186-.158-2.817-.901-.631-1.96-.406-2.704.428-3.47 4.034-8.654 6.558-14.49 6.558A19.05 19.05 0 0 1 9.014 31.103h3.358c1.6 0 2.028-1.104 1.15-2.32l-5.049-7.19c-.72-1.036-1.78-1.059-2.524 0L.901 28.76C0 30 .428 31.104 2.051 31.104" />
    </symbol>

    <symbol
        id="swiper-initial-slide"
        viewBox="0 0 56 56"
        fill="currentColor">
        <path
            d="M13.785 49.574h28.453c4.899 0 7.336-2.437 7.336-7.265V13.69c0-4.828-2.437-7.265-7.336-7.265H13.785c-4.875 0-7.36 2.414-7.36 7.265v28.62c0 4.851 2.485 7.265 7.36 7.265m.07-3.773c-2.343 0-3.656-1.242-3.656-3.68V13.88c0-2.438 1.313-3.68 3.656-3.68h28.313c2.32 0 3.633 1.242 3.633 3.68v28.24c0 2.438-1.313 3.68-3.633 3.68Zm14.18-10.313a7.54 7.54 0 0 0 7.547-7.547c0-4.148-3.398-7.523-7.547-7.523-4.172 0-7.57 3.375-7.57 7.523 0 4.196 3.398 7.547 7.57 7.547" />
    </symbol>

    <symbol
        id="swiper-effect-type"
        viewBox="0 0 56 56"
        fill="currentColor">
        <path
            d="M21.871 15.566c.281 0 .422-.164.469-.421.797-3.75.75-3.891 4.664-4.688.281-.047.445-.21.445-.469 0-.281-.164-.445-.445-.492-3.914-.797-3.867-.937-4.664-4.664-.047-.258-.188-.445-.469-.445s-.422.187-.492.445c-.774 3.727-.727 3.867-4.664 4.664-.258.047-.445.211-.445.492 0 .258.187.422.445.469 3.937.797 3.89.938 4.664 4.688.07.257.21.421.492.421m19.36 8.274c.328 0 .515-.211.562-.516.82-4.453.844-4.734 5.554-5.555.305-.046.54-.257.54-.585 0-.329-.235-.516-.54-.586-4.71-.797-4.734-1.078-5.554-5.532-.047-.304-.234-.539-.562-.539s-.54.235-.586.54c-.797 4.453-.82 4.734-5.532 5.53-.328.071-.539.258-.539.587s.211.539.54.585c4.71.82 4.734 1.102 5.53 5.555.047.305.258.516.587.516M9.027 30.566c.329 0 .516-.234.563-.539.82-4.453.844-4.734 5.555-5.53.304-.071.539-.259.539-.587s-.235-.539-.54-.586c-4.71-.82-4.734-1.101-5.554-5.555-.047-.304-.235-.515-.563-.515s-.539.21-.585.515c-.82 4.454-.82 4.735-5.532 5.555-.328.047-.539.258-.539.586s.211.516.54.586c4.71.797 4.71 1.078 5.53 5.531.047.305.258.54.586.54m40.008 20.04c1.008 1.007 2.695 1.007 3.61 0 .984-1.032.984-2.626 0-3.61l-22.266-22.36c-.984-.984-2.672-.984-3.61 0-.984 1.032-.96 2.65 0 3.634ZM35.418 34.504l-6.867-6.89c-.422-.423-.54-.868-.14-1.29.398-.375.843-.281 1.288.164l6.89 6.89ZM20.16 50.98c.422 0 .727-.305.774-.75.773-6.258 1.078-6.422 7.43-7.454.515-.093.82-.328.82-.797 0-.445-.305-.726-.727-.796-6.398-1.22-6.75-1.196-7.523-7.453-.047-.446-.352-.75-.774-.75-.445 0-.75.304-.797.726-.82 6.352-1.054 6.563-7.523 7.477-.422.047-.727.351-.727.797 0 .445.305.703.727.796 6.469 1.242 6.68 1.242 7.523 7.5a.774.774 0 0 0 .797.703" />
    </symbol>

    <symbol
        id="swiper-transition-duration"
        viewBox="0 0 56 56"
        fill="currentColor">
        <path
            d="M29.346 49.177c1.308 0 2.448-.617 4.916-.617 2.467 0 3.14.616 4.971.616 2.767 0 4.225-1.158 4.225-3.084 0-3.29-3.589-5.495-9.215-5.495-2.766 0-4.019.262-5.57.654l-2.019-4.598c-2-4.411-5.177-7.29-9.7-7.29h-2.206c-.73 0-1.215-.317-1.215-1.028 0-1.158 1.551-1.439 3.252-1.439 5.458 0 9.514 3.01 11.981 9.066l1.271 3.121a20 20 0 0 1 4.02-.392c1.102 0 2.111.074 3.177.224 1.121-.841 2.43-1.72 4.317-2.542 2.094 1.42 4.468 2.336 6.972 2.336 5.16 0 7.477-1.121 7.477-6 0-5.888-4.262-10.299-9.925-10.28l-5.028-6.673c-2.822-3.664-6.168-5.42-9.477-5.42-2.729 0-6.785 1.57-6.785 3.775 0 1.495 3.028 3.589 5.365 5.028l10.766 6.58c-.841.803-1.607 1.233-2.523 1.233-1.458 0-2.954-.878-5.215-2.187-5.776-3.327-10.206-6.448-16.187-6.448-6.225 0-10.954 3.57-13.477 10.523-2 0-3.514 1.308-3.514 3.234 0 2.168 1.72 3.532 4.075 3.532 2.729 3.813 7.196 5.346 12.486 5.346.28 0 .56-.018.84-.018l7.571 6.28c1.87 1.7 2.953 1.962 4.374 1.962m18.748-17.365c-.842 0-1.514-.71-1.514-1.533 0-.84.691-1.588 1.532-1.588.86 0 1.514.672 1.514 1.514 0 .84-.691 1.607-1.532 1.607M15.832 50.653c3.607 0 5.794-.691 7.589-1.925l-5.776-4.822c-.262.018-.58.056-.972.056-.935 0-2.318-.28-3.963-.28-2.093 0-3.383 1.12-3.383 2.803 0 2.505 2.542 4.168 6.505 4.168" />
    </symbol>

    <symbol
        id="swiper-enable-autoplay"
        viewBox="0 0 56 56"
        fill="currentColor">
        <path
            d="M28 51.906c13.055 0 23.906-10.828 23.906-23.906 0-13.055-10.828-23.906-23.883-23.906-1.242 0-1.851.75-1.851 1.968v9.094c0 1.008.68 1.828 1.71 1.828 1.032 0 1.735-.82 1.735-1.828V8.148C39.93 8.968 47.898 17.5 47.898 28A19.84 19.84 0 0 1 28 47.922c-11.063 0-19.945-8.86-19.922-19.922.023-4.922 1.781-9.398 4.711-12.844.726-.914.773-2.015 0-2.836-.774-.843-2.086-.773-2.93.282C6.273 16.773 4.094 22.164 4.094 28c0 13.078 10.828 23.906 23.906 23.906m3.75-20.297c1.851-1.922 1.477-4.547-.75-6.093l-12.4-8.649c-1.171-.82-2.39.399-1.57 1.57l8.649 12.399c1.547 2.227 4.171 2.625 6.07.773" />
    </symbol>

    <symbol
        id="swiper-enable-navigation"
        viewBox="0 0 16 14.035"
        fill="currentColor">
        <path
            d="M15.821 7.03a.8.8 0 0 0-.075-.34 1.6 1.6 0 0 0-.224-.353L10.769.487q-.234-.29-.656-.29-.257 0-.461.124a.9.9 0 0 0-.324.329.9.9 0 0 0-.12.46q0 .161.065.326.065.164.198.337l4.273 5.267-4.273 5.267a1.3 1.3 0 0 0-.197.329q-.065.164-.065.326 0 .254.12.459t.324.329.461.124q.422 0 .657-.282l4.752-5.859q.149-.183.224-.353t.075-.349m-15.719 0q0 .18.075.349t.225.354l4.754 5.857q.234.282.657.282.256 0 .465-.124a.87.87 0 0 0 .324-.329.92.92 0 0 0 .051-.785 1.3 1.3 0 0 0-.198-.329L2.181 7.038l4.273-5.267q.134-.173.198-.337.065-.164.064-.326 0-.254-.115-.459A.87.87 0 0 0 6.277.32a.9.9 0 0 0-.465-.124q-.422 0-.657.29L.401 6.336a2 2 0 0 0-.22.353.8.8 0 0 0-.079.34"
        />
    </symbol>

    <symbol
        id="swiper-enable-pagination"
        viewBox="0 0 56 56"
        fill="currentColor">
        <path
            d="M15.32 28c0-2.602-2.086-4.687-4.734-4.687A4.67 4.67 0 0 0 5.899 28a4.67 4.67 0 0 0 4.687 4.688c2.648 0 4.734-2.086 4.734-4.688m17.344 0c0-2.602-2.062-4.687-4.664-4.687S23.336 25.398 23.336 28s2.062 4.688 4.664 4.688 4.664-2.086 4.664-4.688m17.438 0a4.686 4.686 0 0 0-4.688-4.687c-2.648 0-4.734 2.085-4.734 4.687s2.086 4.688 4.734 4.688A4.686 4.686 0 0 0 50.102 28" />
    </symbol>

    <symbol
        id="swiper-thumbnail"
        viewBox="0 0 32 32"
        fill="currentColor">
        <path
            d="M8 30H4a2 2 0 0 1-2-2v-4a2 2 0 0 1 2-2h4a2 2 0 0 1 2 2v4a2 2 0 0 1-2 2m-4-6v4h4v-4Zm14 6h-4a2 2 0 0 1-2-2v-4a2 2 0 0 1 2-2h4a2 2 0 0 1 2 2v4a2 2 0 0 1-2 2m-4-6v4h4v-4Zm14 6h-4a2 2 0 0 1-2-2v-4a2 2 0 0 1 2-2h4a2 2 0 0 1 2 2v4a2 2 0 0 1-2 2m-4-6v4h4v-4Zm4-4H4a2 2 0 0 1-2-2V4a2 2 0 0 1 2-2h24a2 2 0 0 1 2 2v14a2 2 0 0 1-2 2M4 4v14h24V4Z" />
    </symbol>

    <symbol
        id="swiper-thumb-slide-on-hover"
        viewBox="0 0 28 28"
        fill="currentColor">
        <path d="M8.146 18.453h3.578c-.431-.51-.695-1.02-.8-1.512H8.252c-.888 0-1.362-.492-1.362-1.388V6.869c0-.896.474-1.38 1.362-1.38H19.73c.88 0 1.372.484 1.372 1.38v3.243c.492-.044 1.002.053 1.52.308v-3.7c0-1.82-.94-2.751-2.786-2.751H8.146c-1.836 0-2.777.923-2.777 2.75v8.983c0 1.828.94 2.751 2.777 2.751m14.801 4.711c3.63-1.318 4.852-4.333 3.454-8.218l-.588-1.617c-.528-1.459-1.574-2.136-2.409-1.828-.193.07-.263.22-.202.413l.255.703c.105.308.009.527-.167.598-.202.07-.413-.027-.527-.343l-.167-.466c-.326-.87-1.09-1.248-1.864-.966-.36.123-.474.342-.36.659l.352.949c.114.316.017.527-.167.589-.202.07-.413-.018-.528-.334l-.316-.888c-.352-.975-1.099-1.248-1.855-.975-.342.123-.465.36-.36.65l.686 1.89c.114.307.008.518-.167.588-.203.07-.413-.026-.528-.342L15.23 8.012c-.237-.642-.808-.906-1.353-.712-.58.22-.835.782-.607 1.415l3.305 9.044c.08.21-.017.369-.15.413-.122.044-.254.009-.421-.167l-2.206-2.373c-.343-.37-.72-.484-1.143-.325-.597.22-.843.764-.65 1.283.061.184.167.343.264.466l2.847 3.542c2.382 2.953 5.107 3.56 7.831 2.566"/>
    </symbol>
</svg>